<svg width="139" height="23" viewBox="0 0 139 23" fill="none" xmlns="http://www.w3.org/2000/svg">
<path d="M3.76408 9.73243C3.76408 12.2282 4.75549 14.6217 6.52024 16.3865C8.285 18.1512 10.6785 19.1426 13.1743 19.1426C15.67 19.1426 18.0636 18.1512 19.8283 16.3865C21.5931 14.6217 22.5845 12.2282 22.5845 9.73243H26.3486C26.3486 13.2265 24.9606 16.5774 22.49 19.0481C20.0193 21.5187 16.6683 22.9067 13.1743 22.9067C9.68025 22.9067 6.32928 21.5187 3.85863 19.0481C1.38797 16.5774 6.0799e-07 13.2265 0 9.73243H3.76408ZM18.8204 9.73243C18.8204 11.2299 18.2256 12.666 17.1667 13.7249C16.1079 14.7837 14.6717 15.3785 13.1743 15.3785C11.6768 15.3785 10.2407 14.7837 9.18186 13.7249C8.12301 12.666 7.52817 11.2299 7.52816 9.73243H18.8204ZM13.1743 0.32222C15.67 0.322221 18.0636 1.31363 19.8283 3.07838C21.5931 4.84314 22.5845 7.23669 22.5845 9.73243H18.8204C18.8204 8.23498 18.2256 6.79885 17.1667 5.74C16.1079 4.68115 14.6717 4.0863 13.1743 4.0863C11.6768 4.0863 10.2407 4.68115 9.18186 5.74C8.12301 6.79885 7.52817 8.23498 7.52816 9.73243H3.76408C3.76408 7.23669 4.75549 4.84314 6.52024 3.07838C8.285 1.31363 10.6785 0.32222 13.1743 0.32222Z" fill="url(#paint0_radial_434_3628)"/>
<path d="M136.661 1.2992H138.998V16.9578H136.661V1.2992Z" fill="#111322"/>
<path d="M135.971 16.9578H133.465L132.14 13.1275H125.829L124.528 16.9578H121.999L127.66 1.2992H130.334L135.971 16.9578ZM128.961 3.92502L126.503 11.1521H131.466L128.961 3.92502Z" fill="#111322"/>
<path d="M115.337 0.0931892H117.674V16.9563H115.337V0.0931892Z" fill="#111322"/>
<path d="M113.809 13.3926C113.809 14.8862 113.954 16.163 114.219 16.958H111.834C111.665 16.3557 111.569 15.633 111.521 14.8621C110.677 16.3075 109.16 17.2229 107.377 17.2229C105.04 17.2229 103.378 15.7053 103.378 13.5613C103.378 11.5377 104.655 10.3091 106.919 10.1645L110.196 9.97182C111.135 9.89955 111.497 9.58638 111.497 8.86367V8.81549C111.497 7.51463 110.292 6.47875 108.774 6.47875C107.016 6.47875 106.076 7.24963 105.908 8.74322H103.475C103.643 6.23785 105.715 4.62381 108.774 4.62381C111.713 4.62381 113.809 6.47875 113.809 9.05639V13.3926ZM105.763 13.3926C105.763 14.5249 106.703 15.2476 108.148 15.2476C110.051 15.2476 111.497 13.8262 111.497 11.899V11.5136L107.763 11.7304C106.438 11.8268 105.763 12.3808 105.763 13.3926Z" fill="#111322"/>
<path d="M99.8533 1.00983H102.527V3.32249H99.8533V1.00983ZM100.022 4.91244H102.359V16.9575H100.022V4.91244Z" fill="#111322"/>
<path d="M98.7732 14.9099V16.9576H97.5928C95.786 16.9576 94.3406 15.9699 94.3406 13.6331V6.86381H92.2207V4.91251H94.3406V1.78079H96.6533V4.91251H98.7732V6.86381H96.6533V13.32C96.6533 14.5727 97.1351 14.9099 97.8578 14.9099H98.7732Z" fill="#111322"/>
<path d="M89.4433 9.803C89.4433 7.68307 88.3111 6.76764 86.5284 6.76764C84.818 6.76764 83.4931 7.97215 83.4931 9.65846V16.9578H81.1804V4.9127H83.4931V6.76764C84.3844 5.37041 85.9021 4.59953 87.3234 4.59953C89.901 4.59953 91.7801 6.26175 91.7801 9.3212V16.9578H89.4433V9.803Z" fill="#111322"/>
<path d="M68.5903 10.8876C68.5903 7.0573 70.8066 4.67237 74.3238 4.67237C77.7205 4.67237 80.1536 7.22593 80.1536 10.7672V11.514H71.0234C71.1921 13.923 72.3725 15.1998 74.4924 15.1998C76.2028 15.1998 77.2628 14.3807 77.5278 13.0557H80.0091C79.5032 15.7538 77.6241 17.1511 74.4683 17.1511C70.8548 17.1511 68.5903 14.7421 68.5903 10.8876ZM74.3479 6.52732C72.4448 6.52732 71.3125 7.58728 71.0475 9.80357H77.6482C77.4555 7.80409 76.1787 6.52732 74.3479 6.52732Z" fill="#111322"/>
<path d="M63.4709 12.0436L61.4232 11.8027C58.8456 11.4413 57.5206 10.4054 57.5206 8.28551C57.5206 6.04513 59.3996 4.62381 62.435 4.62381C65.3499 4.62381 67.2771 6.09331 67.5421 8.50232H65.2535C64.9885 7.10509 64.1213 6.43057 62.435 6.43057C60.8691 6.43057 59.8573 7.10509 59.8573 8.14097C59.8573 9.15276 60.5319 9.56229 61.8327 9.73092L63.9527 9.97182C66.6026 10.3091 67.8312 11.4413 67.8312 13.7058C67.8312 15.8257 65.904 17.1989 62.9891 17.1989C59.7369 17.1989 57.6892 15.7053 57.4001 13.3685H59.8333C60.0742 14.7898 61.0859 15.4162 62.965 15.4162C64.5308 15.4162 65.5667 14.7898 65.5667 13.7781C65.5667 12.7663 64.8681 12.2122 63.4709 12.0436Z" fill="#111322"/>
<path d="M52.277 12.0436L50.2294 11.8027C47.6517 11.4413 46.3267 10.4054 46.3267 8.28551C46.3267 6.04513 48.2058 4.62381 51.2411 4.62381C54.156 4.62381 56.0833 6.09331 56.3482 8.50232H54.0597C53.7947 7.10509 52.9274 6.43057 51.2411 6.43057C49.6753 6.43057 48.6635 7.10509 48.6635 8.14097C48.6635 9.15276 49.338 9.56229 50.6389 9.73092L52.7588 9.97182C55.4087 10.3091 56.6373 11.4413 56.6373 13.7058C56.6373 15.8257 54.7101 17.1989 51.7952 17.1989C48.543 17.1989 46.4954 15.7053 46.2063 13.3685H48.6394C48.8803 14.7898 49.8921 15.4162 51.7711 15.4162C53.337 15.4162 54.3729 14.7898 54.3729 13.7781C54.3729 12.7663 53.6742 12.2122 52.277 12.0436Z" fill="#111322"/>
<path d="M33.8831 10.8876C33.8831 7.0573 36.0993 4.67237 39.6165 4.67237C43.0132 4.67237 45.4463 7.22593 45.4463 10.7672V11.514H36.3162C36.4848 13.923 37.6652 15.1998 39.7851 15.1998C41.4955 15.1998 42.5555 14.3807 42.8205 13.0557H45.3018C44.7959 15.7538 42.9169 17.1511 39.761 17.1511C36.1475 17.1511 33.8831 14.7421 33.8831 10.8876ZM39.6406 6.52732C37.7375 6.52732 36.6052 7.58728 36.3403 9.80357H42.9409C42.7482 7.80409 41.4714 6.52732 39.6406 6.52732Z" fill="#111322"/>
<defs>
<radialGradient id="paint0_radial_434_3628" cx="0" cy="0" r="1" gradientUnits="userSpaceOnUse" gradientTransform="translate(2.52604 -6.15772) rotate(50.6604) scale(37.58 68.1138)">
<stop stop-color="#6A46AC"/>
<stop offset="0.630426" stop-color="#31008C"/>
</radialGradient>
</defs>
</svg>
